HIERARCHY
ROOT Hips
{
  OFFSET 155.048 98.1286 3.93448
  CHANNELS 6 Xposition Yposition Zposition Zrotation Xrotation Yrotation
  JOINT RightUpLeg
  {
    OFFSET -8.9458 -8.66707 0.101652
    CHANNELS 3 Zrotation Xrotation Yrotation
    JOINT RightLeg
    {
      OFFSET 0 -44.4227 1.3727
      CHANNELS 3 Zrotation Xrotation Yrotation
      JOINT RightFoot
      {
        OFFSET 0.253549 -42.0924 -1.46059
        CHANNELS 3 Zrotation Xrotation Yrotation
        JOINT RightToes
        {
          OFFSET 0.04 -4.41509 8.4991
          CHANNELS 3 Zrotation Xrotation Yrotation
          End Site
          {
            OFFSET -0.08 -0.137448 9.77979
          }
        }
      }
    }
  }
  JOINT Spine
  {
    OFFSET 0 11.8905 0
    CHANNELS 3 Zrotation Xrotation Yrotation
    JOINT Spine1
    {
      OFFSET 0 25.6574 0.127663
      CHANNELS 3 Zrotation Xrotation Yrotation
      JOINT Head
      {
        OFFSET 0 8.73416 0.011341
        CHANNELS 3 Zrotation Xrotation Yrotation
        End Site
        {
          OFFSET -0.29 12.7742 2.51395
        }
      }
      JOINT LeftShoulder1
      {
        OFFSET 8.99 -0.362252 -0.22
        CHANNELS 3 Zrotation Xrotation Yrotation
        JOINT LeftArm
        {
          OFFSET 10.2827 -0.00337999 0.322123
          CHANNELS 3 Zrotation Xrotation Yrotation
          JOINT LeftForeArm
          {
            OFFSET 26.2597 0.099144 -1.42434
            CHANNELS 3 Zrotation Xrotation Yrotation
            JOINT LeftHand
            {
              OFFSET 22.0902 0.085362 1.02216
              CHANNELS 3 Zrotation Xrotation Yrotation
              End Site
              {
                OFFSET 13.419 -0.6 1.50291
              }
            }
          }
        }
      }
      JOINT RightShoulder
      {
        OFFSET -8.99 -0.362252 -0.22
        CHANNELS 3 Zrotation Xrotation Yrotation
        JOINT RightArm
        {
          OFFSET -10.2827 -0.00338 0.322123
          CHANNELS 3 Zrotation Xrotation Yrotation
          JOINT RightForeArm
          {
            OFFSET -26.364 0.099144 -1.42434
            CHANNELS 3 Zrotation Xrotation Yrotation
            JOINT RightHand
            {
              OFFSET -22.0324 0.085362 1.02216
              CHANNELS 3 Zrotation Xrotation Yrotation
              End Site
              {
                OFFSET -13.3284 -0.6 1.50291
              }
            }
          }
        }
      }
    }
  }
  JOINT LeftUpLeg
  {
    OFFSET 8.9458 -8.66707 0.101652
    CHANNELS 3 Zrotation Xrotation Yrotation
    JOINT LeftLeg
    {
      OFFSET 0 -44.4227 1.3727
      CHANNELS 3 Zrotation Xrotation Yrotation
      JOINT LeftFoot
      {
        OFFSET -0.253549 -42.0924 -1.46059
        CHANNELS 3 Zrotation Xrotation Yrotation
        JOINT LeftToes
        {
          OFFSET -0.04 -4.41509 8.4991
          CHANNELS 3 Zrotation Xrotation Yrotation
          End Site
          {
            OFFSET 0.08 -0.047448 9.77979
          }
        }
      }
    }
  }
}
MOTION
Frames:	12
Frame Time:	0.0333333
105.918 100.239 -4.7148 -0.702368 1.03015 -95.043 0.86714 -5.65633 -4.78111 -1.21672 14.8953 -13.8835 4.02264 -7.60951 -0.169304 0.0462048 0.000530889 0.662642 4.25 -13.1849 -0.0742834 -2.08675 26.0337 0.236055 1.82872 -2.31888 -5.0775 -37.841 7.49008 -13.4192 -41.035 -24.0489 -10.1269 -10.7139 8.1793 -16.8129 21.9979 9.02773 0.720116 49.1019 12.4813 18.1092 19.488 -43.1912 -5.30723 4.33067 20.2035 17.6948 -6.13564 9.47052 3.95554 -0.531901 -4.70565 1.46782 2.21109 17.3746 15.566 -3.187 -10.4682 -0.0309523 -1.31982e-009 8.75243e-006 -1.47702e-008 
105.819 100.246 -4.70475 -0.635166 1.06308 -95.0648 0.917723 -5.64045 -4.71621 -1.24229 14.8423 -13.9171 4.07565 -7.60887 -0.169304 0.0462048 0.000530889 0.662642 4.04684 -13.1943 -0.123236 -1.8804 25.9659 0.126349 1.7559 -2.46286 -5.07903 -37.9429 7.51404 -13.4324 -42.844 -36.8935 -11.2692 -12.3401 13.6022 -9.64732 21.7542 9.14683 1.32096 49.1257 12.4998 18.1311 19.0984 -43.7347 -5.7805 4.53387 20.8885 16.5999 -5.96278 9.47881 4.08849 -0.458858 -4.67813 1.63376 2.18322 17.3152 15.4025 -3.22614 -10.4811 -0.0309536 -1.31982e-009 8.75243e-006 -1.47702e-008 
105.635 100.253 -4.69598 -0.503412 1.12205 -95.1109 0.988596 -5.61558 -4.65607 -1.2414 14.7416 -13.9292 4.0497 -7.61443 -0.169306 0.0462048 0.000530889 0.662642 3.61552 -13.2559 -0.229136 -1.44283 25.8987 -0.105178 1.74566 -2.73224 -4.96518 -38.1132 7.5757 -13.5023 -45.7251 -51.699 -13.3195 -12.4869 17.8084 0.147568 21.8752 9.36863 2.56006 49.124 12.5134 18.1553 18.4531 -44.9647 -6.63744 4.93656 22.3149 14.4859 -5.61997 9.50277 4.18851 -0.345682 -4.66648 1.85215 2.14636 17.2628 15.198 -3.17728 -10.5105 -0.0309565 -1.31982e-009 8.75243e-006 -1.47702e-008 
105.425 100.26 -4.70043 -0.403488 1.14541 -95.2327 0.9966 -5.55421 -4.68041 -1.2038 14.659 -13.7834 3.98687 -7.66277 -0.169325 0.0462048 0.000530889 0.662642 3.20447 -13.3197 -0.310499 -1.15802 25.9131 -0.248374 1.92842 -3.01251 -4.72609 -38.0825 7.59096 -13.5483 -45.2519 -53.5368 -12.0598 -9.8269 15.1874 4.25278 22.8189 9.49347 3.34575 49.1892 12.5412 18.1753 17.7889 -46.246 -7.62697 5.35187 23.6119 12.391 -5.38482 9.52885 4.01666 -0.292227 -4.60675 2.00558 2.12239 17.2122 15.1282 -3.09558 -10.5415 -0.0309596 -1.31982e-009 8.75243e-006 -1.47702e-008 
105.209 100.262 -4.71608 -0.346138 1.10314 -95.4957 0.950491 -5.50851 -4.70648 -1.20987 14.6746 -13.4862 4.00486 -7.77565 -0.168319 0.0462048 0.000530889 0.662642 2.94139 -13.3739 -0.303266 -1.13918 25.9996 -0.209265 2.11585 -3.22732 -4.55643 -37.8409 7.52346 -13.4937 -43.9668 -54.5172 -9.23033 -9.46134 17.8586 5.55255 24.1964 9.48279 3.41805 49.3087 12.5731 18.1789 17.2085 -47.1048 -8.63322 5.67915 24.2775 10.7952 -5.42209 9.53833 3.6909 -0.335832 -4.46981 2.08158 2.11162 17.1262 15.2879 -3.0762 -10.5474 -0.0309602 -1.31982e-009 8.75243e-006 -1.47702e-008 
104.987 100.26 -4.73494 -0.235222 1.02637 -95.8601 0.924347 -5.56904 -4.62499 -1.30305 14.7626 -13.1912 4.05903 -7.9026 -0.164865 0.0462048 0.000530889 0.662642 2.79049 -13.4775 -0.215476 -1.17645 26.0447 -0.0817668 2.07247 -3.34229 -4.67473 -37.6577 7.4403 -13.3802 -41.883 -54.3125 -5.3023 -10.2875 20.6901 4.81824 24.9743 9.40015 3.08547 49.3536 12.5672 18.1495 16.7082 -47.617 -9.71947 5.91218 24.4913 9.61418 -5.57208 9.53558 3.46133 -0.4333 -4.33818 2.1211 2.1166 16.9665 15.6188 -3.04092 -10.5385 -0.0309593 -1.31982e-009 8.75243e-006 -1.47702e-008 
104.757 100.269 -4.75771 -0.0218006 0.954318 -96.2018 0.932192 -5.68733 -4.48572 -1.40584 14.7524 -12.9772 4.06813 -7.97273 -0.163336 0.0462048 0.000530889 0.662642 2.74298 -13.6556 -0.0811544 -1.23044 25.9605 0.072985 1.89048 -3.36871 -5.05093 -37.6413 7.39377 -13.2823 -39.6395 -53.6726 -1.3205 -11.1137 21.2373 3.07037 24.5042 9.31849 2.64024 49.3207 12.5264 18.0931 16.2709 -47.9467 -10.9832 6.00551 24.5234 8.81581 -5.56825 9.54096 3.33268 -0.519181 -4.25607 2.21862 2.14244 16.6785 15.8856 -2.95872 -10.5302 -0.0309585 -1.31982e-009 8.75243e-006 -1.47702e-008 
104.522 100.3 -4.79614 0.220633 0.892063 -96.4485 0.926692 -5.7223 -4.41475 -1.4291 14.5445 -12.795 4.06562 -7.98934 -0.162523 0.0462048 0.000530889 0.662642 2.84019 -13.8835 0.0814463 -1.48444 25.818 0.297553 1.83566 -3.34779 -5.39859 -37.6056 7.34914 -13.196 -37.9866 -52.8799 1.83064 -11.8792 20.5005 0.850112 23.2698 9.28676 2.32315 49.3067 12.4808 18.0204 15.9571 -48.1777 -12.2801 5.94046 24.6481 8.41665 -5.42952 9.55661 3.19769 -0.55187 -4.15455 2.46135 2.16632 16.2679 15.8914 -2.99157 -10.4929 -0.0309547 -1.31982e-009 8.75243e-006 -1.47702e-008 
104.28 100.335 -4.85922 0.409569 0.843433 -96.6033 0.913236 -5.64141 -4.41391 -1.3921 14.2567 -12.6551 4.06218 -8.01137 -0.161617 0.0462048 0.000530889 0.662642 2.99915 -14.1631 0.23014 -1.86131 25.7511 0.538455 1.934 -3.29967 -5.49197 -37.4508 7.27744 -13.0951 -37.3763 -51.8368 3.6425 -12.5776 19.86 -1.39165 22.0648 9.29197 2.17258 49.2853 12.4232 17.93 15.8648 -48.3335 -13.2485 5.83798 25.0558 8.07917 -5.396 9.56262 3.10525 -0.506042 -3.9695 2.84643 2.13811 15.8245 15.6534 -3.15615 -10.4304 -0.0309485 -1.31982e-009 8.75243e-006 -1.47702e-008 
104.036 100.357 -4.94399 0.534385 0.82453 -96.6555 0.938101 -5.49805 -4.41135 -1.35931 14.0181 -12.6339 4.01265 -8.07233 -0.159917 0.0462048 0.000530889 0.662642 3.03503 -14.4803 0.288071 -2.01906 25.7518 0.622068 1.99965 -3.20876 -5.38637 -37.339 7.22435 -13.0188 -37.746 -50.1225 4.04848 -12.9418 19.0148 -3.18176 21.263 9.30082 2.0927 49.1874 12.355 17.8536 15.9358 -48.3759 -13.6901 5.862 25.5285 7.39085 -5.49934 9.55563 3.09002 -0.37748 -3.71722 3.305 2.03587 15.4034 15.2576 -3.20705 -10.4341 -0.0308266 -1.31982e-009 8.75243e-006 -1.47702e-008 
103.804 100.368 -5.04218 0.593118 0.820173 -96.6077 0.981365 -5.30616 -4.39868 -1.34349 13.8515 -12.6863 4.01855 -8.21653 -0.155728 0.0462048 0.000530889 0.662642 2.91824 -14.695 0.236212 -1.92208 25.6689 0.522038 1.95886 -3.09029 -5.2556 -37.3902 7.22998 -13.0116 -38.5259 -48.4743 3.45973 -13.0364 18.592 -4.25686 20.877 9.29309 1.98284 49.1216 12.3407 17.8568 15.9599 -48.2817 -13.7149 6.01475 25.6918 6.41348 -5.47288 9.55987 3.02959 -0.213484 -3.45832 3.7462 1.89626 15.0695 14.7611 -3.15597 -10.5601 -0.0324036 -1.31982e-009 8.75243e-006 -1.47702e-008 
103.605 100.342 -5.14408 0.545414 0.805847 -96.5682 1.00611 -5.16173 -4.35717 -1.36092 14.004 -12.6953 4.23987 -8.59766 -0.142813 0.0462048 0.000530889 0.662642 2.87269 -14.6032 0.16699 -1.90827 25.3902 0.438201 1.86878 -2.98246 -5.12271 -37.4931 7.26507 -13.0508 -39.4182 -46.6874 2.24474 -13.0476 18.6233 -5.1773 20.7501 9.26428 1.79309 49.2067 12.4057 17.9331 15.8905 -48.1375 -13.4496 6.1665 25.6657 5.5217 -5.16767 9.58656 2.90507 -0.0854456 -3.30803 3.99126 1.79579 15.1543 14.4067 -3.41281 -10.8429 -0.0459599 -1.31982e-009 8.75243e-006 -1.47702e-008 
